<svg width="32" height="33" viewBox="0 0 32 33" fill="none" xmlns="http://www.w3.org/2000/svg">
<g clip-path="url(#clip0_123_566)">
<path d="M19 28.8555H13C12.448 28.8555 12 28.4075 12 27.8555C12 27.3035 12.448 26.8555 13 26.8555H19C19.552 26.8555 20 27.3035 20 27.8555C20 28.4075 19.552 28.8555 19 28.8555Z" fill="#F4A464"/>
<path d="M16 5.4648C15.448 5.4648 15 5.0168 15 4.4648V1.85547C15 1.30347 15.448 0.855469 16 0.855469C16.552 0.855469 17 1.30347 17 1.85547V4.4648C17 5.0168 16.552 5.4648 16 5.4648Z" fill="#F4A464"/>
<path d="M24.7614 9.09389C24.5054 9.09389 24.2494 8.99656 24.0547 8.80056C23.6641 8.40989 23.6641 7.77656 24.0547 7.38589L25.9001 5.54056C26.2907 5.14989 26.9241 5.14989 27.3147 5.54056C27.7054 5.93123 27.7054 6.56456 27.3147 6.95523L25.4694 8.80056C25.2734 8.99523 25.0174 9.09389 24.7614 9.09389Z" fill="#F4A464"/>
<path d="M31 17.8555H28.3906C27.8386 17.8555 27.3906 17.4075 27.3906 16.8555C27.3906 16.3035 27.8386 15.8555 28.3906 15.8555H31C31.552 15.8555 32 16.3035 32 16.8555C32 17.4075 31.552 17.8555 31 17.8555Z" fill="#F4A464"/>
<path d="M26.6067 28.4621C26.3507 28.4621 26.0947 28.3647 25.9001 28.1687L24.0547 26.3234C23.6641 25.9327 23.6641 25.2994 24.0547 24.9087C24.4454 24.5181 25.0787 24.5181 25.4694 24.9087L27.3147 26.7541C27.7054 27.1447 27.7054 27.7781 27.3147 28.1687C27.1187 28.3647 26.8627 28.4621 26.6067 28.4621Z" fill="#F4A464"/>
<path d="M5.39322 28.4621C5.13722 28.4621 4.88122 28.3647 4.68655 28.1687C4.29589 27.7781 4.29589 27.1447 4.68655 26.7541L6.53189 24.9087C6.92255 24.5181 7.55589 24.5181 7.94655 24.9087C8.33722 25.2994 8.33722 25.9327 7.94655 26.3234L6.10122 28.1687C5.90522 28.3647 5.64922 28.4621 5.39322 28.4621Z" fill="#F4A464"/>
<path d="M3.60933 17.8555H1C0.448 17.8555 0 17.4075 0 16.8555C0 16.3035 0.448 15.8555 1 15.8555H3.60933C4.16133 15.8555 4.60933 16.3035 4.60933 16.8555C4.60933 17.4075 4.16133 17.8555 3.60933 17.8555Z" fill="#F4A464"/>
<path d="M7.23855 9.09389C6.98255 9.09389 6.72655 8.99656 6.53189 8.80056L4.68655 6.95523C4.29589 6.56456 4.29589 5.93123 4.68655 5.54056C5.07722 5.14989 5.71055 5.14989 6.10122 5.54056L7.94655 7.38589C8.33722 7.77656 8.33722 8.40989 7.94655 8.80056C7.74922 8.99523 7.49455 9.09389 7.23855 9.09389Z" fill="#F4A464"/>
<path d="M20.9997 17.5221C20.4477 17.5221 19.9997 17.0741 19.9997 16.5221C19.9997 14.4995 18.3557 12.8555 16.333 12.8555C15.781 12.8555 15.333 12.4075 15.333 11.8555C15.333 11.3035 15.781 10.8555 16.333 10.8555C19.457 10.8555 21.9997 13.3981 21.9997 16.5221C21.9997 17.0741 21.5517 17.5221 20.9997 17.5221Z" fill="#F4A464"/>
<path d="M17.6662 32.8554H14.3329C13.2089 32.8554 11.9995 32.0021 11.9995 30.1301V27.7781C11.9995 26.3634 11.3969 25.0648 10.3875 24.3048C7.47421 22.1114 6.12621 18.5034 6.86888 14.8888C7.59555 11.3474 10.4609 8.47143 13.9982 7.73143C16.8102 7.14077 19.6889 7.82477 21.8835 9.60877C24.0755 11.3901 25.3329 14.0314 25.3329 16.8554C25.3329 19.7328 24.0329 22.4034 21.7662 24.1861C20.6435 25.0688 19.9995 26.2981 19.9995 27.5581V30.5221C19.9995 31.8088 18.9529 32.8554 17.6662 32.8554ZM15.9809 9.52477C15.4582 9.52477 14.9315 9.57943 14.4049 9.68877C11.6369 10.2674 9.39555 12.5181 8.82621 15.2901C8.24088 18.1394 9.29955 20.9821 11.5889 22.7061C13.0969 23.8421 13.9982 25.7381 13.9982 27.7781V30.1301C13.9982 30.2514 14.0142 30.8554 14.3315 30.8554H17.6649C17.8489 30.8554 17.9982 30.7061 17.9982 30.5221V27.5581C17.9982 25.6794 18.9209 23.8781 20.5289 22.6128C22.3115 21.2128 23.3329 19.1141 23.3329 16.8554C23.3329 14.6368 22.3435 12.5608 20.6209 11.1608C19.3035 10.0914 17.6702 9.52477 15.9809 9.52477Z" fill="#F4A464"/>
</g>
<defs>
<clipPath id="clip0_123_566">
<rect width="32" height="32" fill="white" transform="translate(0 0.855469)"/>
</clipPath>
</defs>
</svg>
