<svg width="402" height="512" viewBox="0 0 402 512" fill="none" xmlns="http://www.w3.org/2000/svg">
<path d="M341.388 94.8619C353.584 110.003 357.854 131.719 358.545 156.333C359.105 176.269 357.318 198.028 355.544 219.631C355.128 224.694 354.713 229.75 354.329 234.771C353.846 241.076 353.417 247.321 352.993 253.486C351.639 273.175 350.341 292.053 347.553 309.511C343.893 332.428 337.675 352.828 325.441 369.316C300.878 402.332 252.272 419.709 208.317 415.015C164.387 410.245 125.184 383.343 86.3975 350.163C67.0078 333.576 47.7569 315.49 33.4996 296.797C19.2364 278.097 10.0203 258.852 10.5915 239.938C11.1628 221.023 21.5219 202.35 36.6472 184.555C51.7661 166.767 71.5931 149.918 90.9923 134.652C129.784 104.125 166.699 80.0716 213.472 70.1892C236.867 65.2461 262.76 63.8285 285.858 67.4502C308.965 71.0735 329.204 79.728 341.388 94.8617L341.777 94.5482L341.388 94.8619Z" fill="#F5F8FF" stroke="#1B3C87"/>
<path d="M344.628 241.344C361.644 241.344 375.439 227.55 375.439 210.533C375.439 193.517 361.644 179.722 344.628 179.722C327.611 179.722 313.816 193.517 313.816 210.533C313.816 227.55 327.611 241.344 344.628 241.344Z" fill="#F5F8FF" stroke="#1B3C87" stroke-width="1.2747" stroke-linecap="round" stroke-linejoin="round"/>
<path d="M384.618 177.025C393.666 177.025 401.001 169.69 401.001 160.642C401.001 151.594 393.666 144.259 384.618 144.259C375.569 144.259 368.234 151.594 368.234 160.642C368.234 169.69 375.569 177.025 384.618 177.025Z" fill="#F5F8FF" stroke="#1B3C87" stroke-width="1.2747" stroke-linecap="round" stroke-linejoin="round"/>
<path d="M222.669 1L313.379 20.263L197.936 106.947L222.669 1Z" stroke="#B2C3FB" stroke-width="1.2747" stroke-linecap="round" stroke-linejoin="round"/>
<path d="M35.8174 434.071C35.567 439.609 31.4833 479.243 26.4941 494.21C43.2048 492.005 134.271 473.984 161.663 458.15C159.486 443.337 43.8212 432.53 35.8174 434.071Z" fill="#3C3744"/>
<path d="M90.1017 137.623C90.1017 142.519 88.6499 147.304 85.93 151.375C83.2102 155.446 79.3443 158.618 74.8212 160.492C70.2982 162.365 65.3212 162.855 60.5196 161.9C55.718 160.945 51.3075 158.588 47.8457 155.126C44.3839 151.664 42.0264 147.254 41.0713 142.452C40.1162 137.65 40.6064 132.673 42.4799 128.15C44.3534 123.627 47.5261 119.761 51.5967 117.042C55.6673 114.322 60.453 112.87 65.3487 112.87C68.5997 112.869 71.819 113.508 74.8227 114.752C77.8265 115.995 80.5557 117.818 82.8545 120.117C85.1533 122.416 86.9765 125.145 88.22 128.149C89.4635 131.153 90.1029 134.372 90.1017 137.623Z" fill="#46DBC9"/>
<path d="M167.489 180.541C169.252 179.713 171.814 174.136 171.814 165.872C171.814 145.328 156.211 135.697 131.255 135.697C113.832 135.697 93.2975 142.208 80.2083 166.652C70.4323 184.817 66.4545 224.923 58.2966 239.351C53.1341 248.472 42.1831 266.945 33.7748 284.32C30.6156 288.732 14.7333 322.384 38.9854 333.441C63.2376 344.498 175.859 339.952 178.854 335.204C181.85 330.455 165.014 296.543 159.476 289.676C153.937 282.808 145.991 274.073 150.518 240.295C155.045 206.517 150.952 186.609 154.833 185C158.715 183.392 163.425 183.296 167.489 180.541Z" fill="#46DBC9"/>
<path d="M104.895 204.177C104.895 206.255 104.279 208.287 103.124 210.015C101.969 211.743 100.328 213.089 98.4081 213.885C96.488 214.68 94.3752 214.888 92.3369 214.483C90.2985 214.077 88.4262 213.077 86.9566 211.607C85.4871 210.137 84.4863 208.265 84.0808 206.227C83.6754 204.188 83.8835 202.076 84.6788 200.155C85.4741 198.235 86.8209 196.594 88.549 195.44C90.277 194.285 92.3086 193.669 94.3869 193.669C97.173 193.671 99.8443 194.779 101.814 196.749C103.784 198.719 104.892 201.391 104.895 204.177Z" fill="white"/>
<path d="M31.8292 430.093C31.5787 435.631 27.495 475.265 22.5059 490.232" stroke="#1B3C87" stroke-width="1.56788" stroke-linecap="round" stroke-linejoin="round"/>
<path d="M264.644 266.338C272.782 253.451 270.422 238.59 266.926 243.165C265.761 244.696 250.553 275.508 247.519 278.638C245.159 278.715 243.281 279.023 242.491 279.668C239.409 282.173 240.565 299.721 239.409 301.262C238.253 302.803 194.285 370.301 192.349 372.42C192.157 373.19 186.571 347.166 184.866 342.562C180.474 346.106 169.542 352.377 166.248 353.446C166.624 356.422 168.473 393.214 166.248 405.167C168.117 408.865 179.405 420.077 184.201 420.077C193.438 420.077 203.262 416.522 205.843 414.741C216.621 407.344 258.21 311.828 261.253 309.844C267.331 305.856 277.453 292.103 278.869 283.396C278.869 279.543 282.028 277.029 264.615 266.309" fill="white"/>
<path d="M141.871 279.515C169.003 270.654 193.689 332.257 191.763 337.227C189.836 342.196 162.444 357.048 156.473 356.258C150.501 355.469 131.335 282.934 141.871 279.495" fill="#EC973A"/>
<path d="M137.912 275.536C165.044 266.675 189.729 328.288 187.803 333.248C185.877 338.209 158.485 353.07 152.513 352.3C146.542 351.529 127.317 278.975 137.912 275.536Z" stroke="#1B3C87" stroke-width="1.56788" stroke-linecap="round" stroke-linejoin="round"/>
<path d="M109.21 264.114C186.002 265.915 166.604 437.423 163.079 443.549C158.331 451.793 60.0217 459.277 36.5786 436.277C31.1561 430.96 36.3089 262.409 109.21 264.114Z" fill="#EC973A"/>
<path d="M96.332 260.81C99.2684 260.288 102.25 260.065 105.232 260.145C128.829 260.694 143.343 277.27 152.031 300.155" stroke="#1B3C87" stroke-width="1.56788" stroke-linecap="round" stroke-linejoin="round"/>
<path d="M163.34 362.21C165.42 401.093 160.672 436.835 159.102 439.571C154.353 447.815 56.0447 455.299 32.6016 432.299C27.6702 427.483 31.4843 287.499 87.1255 263.584" stroke="#1B3C87" stroke-width="1.56788" stroke-linecap="round" stroke-linejoin="round"/>
<path d="M161.028 161.567C161.182 171.102 94.715 180.127 94.349 193.669C93.983 207.211 93.7614 215.032 93.7614 215.032C96.1404 227.658 90.9876 272.301 89.5332 276.962C95.1098 282.154 123.08 281.778 126.133 278.638C125.738 275.498 125.796 254.116 126.595 251.67C127.77 251.828 128.954 251.908 130.14 251.911C151.531 251.911 168.878 226.666 168.878 195.518C168.878 179.241 168.608 174.936 161.047 161.538" fill="white"/>
<path d="M69.5761 269.324C99.3086 278.561 81.5095 350.585 75.8269 353.426C70.1443 356.268 14.455 340.356 13.3184 334.106C12.1819 327.855 31.6954 257.545 69.5761 269.324Z" fill="#EC973A"/>
<path d="M82.3188 302.466C82.078 324.359 75.047 347.85 71.8493 349.449C66.1667 352.29 10.4774 336.379 9.34084 330.128C9.00374 328.288 10.4485 320.93 13.6269 311.741" stroke="#1B3C87" stroke-width="1.56788" stroke-linecap="round" stroke-linejoin="round"/>
<path d="M29.2871 281.017C38.3985 268.939 50.5535 260.666 65.5979 265.347C66.8158 265.72 67.9909 266.22 69.1038 266.839" stroke="#1B3C87" stroke-width="1.56788" stroke-linecap="round" stroke-linejoin="round"/>
<path d="M209.512 336.822C221.734 318.214 234.833 298.171 235.459 297.333C236.615 295.792 235.459 278.243 238.541 275.739C241.623 273.235 261.271 275.739 261.271 277.973C261.271 280.208 253.248 287.605 251.284 288.154" stroke="#1B3C87" stroke-width="1.56788" stroke-linecap="round" stroke-linejoin="round"/>
<path d="M181.129 339.24C182.834 343.853 188.208 369.271 188.401 368.5C188.892 367.951 192.118 363.164 196.674 356.307" stroke="#1B3C87" stroke-width="1.56788" stroke-linecap="round" stroke-linejoin="round"/>
<path d="M260.666 262.361C268.804 249.474 266.445 234.612 262.949 239.187C261.783 240.719 246.575 271.53 243.541 274.66" stroke="#1B3C87" stroke-width="1.56788" stroke-linecap="round" stroke-linejoin="round"/>
<path d="M263.38 265.722C262.292 267.783 257.303 276.095 257.303 276.095" stroke="#1B3C87" stroke-width="1.56788" stroke-linecap="round" stroke-linejoin="round"/>
<path d="M268.719 269.006C266.602 273.798 264.112 278.416 261.273 282.818" stroke="#1B3C87" stroke-width="1.56788" stroke-linecap="round" stroke-linejoin="round"/>
<path d="M273.504 272.589C271.026 277.966 268.181 283.167 264.99 288.154" stroke="#1B3C87" stroke-width="1.56788" stroke-linecap="round" stroke-linejoin="round"/>
<path d="M260.607 303.169C259.591 304.177 258.485 305.089 257.303 305.895C254.259 307.889 212.67 403.395 201.893 410.801C199.312 412.574 189.487 416.128 180.251 416.128C175.435 416.128 165.197 406.496 163.338 402.827" stroke="#1B3C87" stroke-width="1.56788" stroke-linecap="round" stroke-linejoin="round"/>
<path d="M274.919 279.447C274.332 283.078 272.222 287.586 269.535 291.9" stroke="#1B3C87" stroke-width="1.56788" stroke-linecap="round" stroke-linejoin="round"/>
<path d="M156.212 227.244C149.104 239.89 138.307 247.961 126.21 247.961C118.505 247.961 111.291 244.667 105.242 238.995" stroke="#1B3C87" stroke-width="1.56788" stroke-linecap="round" stroke-linejoin="round"/>
<path d="M157.068 157.589C162.334 168.131 165.012 179.776 164.88 191.559C164.897 197.504 164.25 203.432 162.953 209.233" stroke="#1B3C87" stroke-width="1.56788" stroke-linecap="round" stroke-linejoin="round"/>
<path d="M96.3332 208.81C94.8331 209.843 93.0899 210.468 91.275 210.622C89.4602 210.777 87.6363 210.457 85.9829 209.693C84.3295 208.929 82.9036 207.747 81.8455 206.264C80.7875 204.782 80.1338 203.049 79.9488 201.237C79.7638 199.425 80.0538 197.596 80.7904 195.93C81.5269 194.264 82.6846 192.819 84.1495 191.736C85.6143 190.654 87.3358 189.971 89.1445 189.756C90.9532 189.541 92.7867 189.801 94.4646 190.51" stroke="#1B3C87" stroke-width="1.56788" stroke-linecap="round" stroke-linejoin="round"/>
<path d="M128.347 188.352C128.347 190.577 127.384 192.388 126.151 192.388C124.918 192.388 123.965 190.577 123.965 188.352C123.965 186.127 124.928 184.307 126.151 184.307C127.374 184.307 128.347 186.118 128.347 188.352Z" fill="#1B3C87"/>
<path d="M148.352 207.22C148.719 207.945 149.172 208.624 149.7 209.243" stroke="#1B3C87" stroke-width="1.56788" stroke-linecap="round" stroke-linejoin="round"/>
<path d="M146.204 194.796C145.997 197.754 146.267 200.726 147.004 203.599" stroke="#1B3C87" stroke-width="1.56788" stroke-linecap="round" stroke-linejoin="round"/>
<path d="M116.029 215.195C116.453 218.027 119.574 221.706 123.956 223.122" stroke="#1B3C87" stroke-width="1.56788" stroke-linecap="round" stroke-linejoin="round"/>
<path d="M122.154 274.66C121.759 271.52 121.817 250.138 122.617 247.692" stroke="#1B3C87" stroke-width="1.56788" stroke-linecap="round" stroke-linejoin="round"/>
<path d="M88.2518 254.039C87.2886 263.526 86.1328 271.193 85.5742 272.984C87.7895 275.045 93.5202 276.22 99.8288 276.702" stroke="#1B3C87" stroke-width="1.56788" stroke-linecap="round" stroke-linejoin="round"/>
<path d="M89.8027 211.063C90.7659 215.966 90.5155 225.693 89.8027 236.038" stroke="#1B3C87" stroke-width="1.56788" stroke-linecap="round" stroke-linejoin="round"/>
<path d="M43.0516 150.288C40.2589 147.217 38.2837 143.492 37.3082 139.457C36.3326 135.422 36.3879 131.206 37.4691 127.198C38.5503 123.19 40.6225 119.519 43.495 116.522C46.3674 113.524 49.9478 111.298 53.9064 110.048" stroke="#1B3C87" stroke-width="1.56788" stroke-linecap="round" stroke-linejoin="round"/>
<path d="M84.1766 124.023C85.9644 128.253 86.5414 132.896 85.8433 137.434C85.1452 141.973 83.1995 146.228 80.2233 149.724C77.2472 153.221 73.3577 155.822 68.9892 157.236C64.6208 158.65 59.9451 158.823 55.4844 157.734" stroke="#1B3C87" stroke-width="1.56788" stroke-linecap="round" stroke-linejoin="round"/>
<path d="M147.727 134.55C160.44 138.788 167.837 147.774 167.837 161.894C167.837 170.158 165.275 175.735 163.503 176.563" stroke="#1B3C87" stroke-width="1.56788" stroke-linecap="round" stroke-linejoin="round"/>
<path d="M61.3711 214.463C65.7245 196.905 69.6638 174.829 76.2133 162.626C88.4934 139.713 107.304 132.566 123.966 131.805" stroke="#1B3C87" stroke-width="1.56788" stroke-linecap="round" stroke-linejoin="round"/>
<path d="M29.7969 280.343C35.5758 268.39 42.5683 255.908 48.0967 246.324" stroke="#1B3C87" stroke-width="1.56788" stroke-linecap="round" stroke-linejoin="round"/>
<path d="M145.916 266.839C146.33 270.644 146.956 273.832 147.842 275.566" stroke="#1B3C87" stroke-width="1.56788" stroke-linecap="round" stroke-linejoin="round"/>
<path d="M146.127 239.9C145.424 242.337 145.077 250.187 145.327 258.036" stroke="#1B3C87" stroke-width="1.56788" stroke-linecap="round" stroke-linejoin="round"/>
<path d="M159.66 151.309C159.66 171.276 90.3906 173.077 90.3906 189.691" stroke="#1B3C87" stroke-width="1.56788" stroke-linecap="round" stroke-linejoin="round"/>
<path d="M194.439 443.308C201.114 444.425 204.919 433.435 208.983 434.023C211.95 434.447 226.137 436.267 226.763 437.249C227.389 438.232 225.068 448.46 225.068 448.46" fill="#F5F8FF"/>
<path d="M124.141 431.46L113.598 494.128L214.524 511.107L225.067 448.439L124.141 431.46Z" fill="#F5F8FF"/>
<path d="M215.291 478.983L210.552 507.145L152.031 497.302" stroke="#1B3C87" stroke-width="1.56788" stroke-linecap="round" stroke-linejoin="round"/>
<path d="M221.099 444.483L219.115 456.262" stroke="#1B3C87" stroke-width="1.56788" stroke-linecap="round" stroke-linejoin="round"/>
<path d="M118.821 491.716L109.623 490.136L120.218 427.464L206.16 441.911" stroke="#1B3C87" stroke-width="1.56788" stroke-linecap="round" stroke-linejoin="round"/>
<path d="M190.461 439.33C197.136 440.447 200.95 429.458 205.005 430.045C207.971 430.469 222.158 432.29 222.784 433.272C223.41 434.254 221.089 444.483 221.089 444.483" stroke="#1B3C87" stroke-width="1.56788" stroke-linecap="round" stroke-linejoin="round"/>
<path d="M194.955 450.402L190.453 477.158L205.118 479.625L209.619 452.869L194.955 450.402Z" fill="#FB5D64"/>
<path d="M128.867 444.483L186.493 454.172" stroke="#1B3C87" stroke-width="1.56788" stroke-linecap="round" stroke-linejoin="round"/>
<path d="M175.734 464.95L184.306 466.394" stroke="#1B3C87" stroke-width="1.56788" stroke-linecap="round" stroke-linejoin="round"/>
<path d="M126.691 456.705L159.795 462.272" stroke="#1B3C87" stroke-width="1.56788" stroke-linecap="round" stroke-linejoin="round"/>
<path d="M191.443 447.189C189.94 435.631 186.463 423.361 161.893 424.42C158.57 421.752 94.0392 403.453 55.1279 393.359C59.6547 384.007 64.9328 355.507 65.2025 352.906C62.313 352.367 19.6743 339.249 19.6743 339.249C19.6743 339.249 1.84642 413.797 5.71829 420.028C29.5755 435.227 119.072 446.178 159.476 443.337C162.307 445.561 161.922 446.958 165.938 447.526C169.955 448.095 191.443 447.189 191.443 447.189Z" fill="white"/>
<path d="M114.449 406.679C137.449 413.267 156.163 419.017 157.907 420.443C182.496 419.383 185.963 431.605 187.466 443.211" stroke="#1B3C87" stroke-width="1.56788" stroke-linecap="round" stroke-linejoin="round"/>
<path d="M61.2249 348.967C60.9456 351.529 55.6676 380.029 51.1504 389.42C64.6923 392.916 81.3452 397.414 97.4394 401.941" stroke="#1B3C87" stroke-width="1.56788" stroke-linecap="round" stroke-linejoin="round"/>
<path d="M166.189 432.347C167.304 436.306 167.712 440.43 167.393 444.531" stroke="#1B3C87" stroke-width="1.56788" stroke-linecap="round" stroke-linejoin="round"/>
<path d="M173.605 432.347C174.73 436.304 175.137 440.43 174.809 444.531" stroke="#1B3C87" stroke-width="1.56788" stroke-linecap="round" stroke-linejoin="round"/>
<path d="M179.588 432.347C180.704 436.306 181.108 440.431 180.782 444.531" stroke="#1B3C87" stroke-width="1.56788" stroke-linecap="round" stroke-linejoin="round"/>
<path d="M2.73353 397.019C1.04802 407.402 0.335286 415.165 1.77038 416.051C35.1243 437.24 135.928 440.553 155.528 439.359" stroke="#1B3C87" stroke-width="1.56788" stroke-linecap="round" stroke-linejoin="round"/>
<path d="M15.6977 335.31C15.3317 336.6 11.8933 351.047 8.43555 367.392" stroke="#1B3C87" stroke-width="1.56788" stroke-linecap="round" stroke-linejoin="round"/>
</svg>
